<svg width="512" height="512" viewBox="0 0 512 512" fill="none" xmlns="http://www.w3.org/2000/svg">
<path d="M72 481V38.5V30C72 7.6 95.2911 0.666667 106.937 0H283.949L440 134V481C440 504.2 415.932 511.333 403.899 512H108.101C81.0835 512 72.7764 491.333 72 481Z" fill="#D9D9D9"/>
<path d="M440 133.906L284 0V116.418C284 132.007 297.582 134.572 304.373 133.906H440Z" fill="#827F7F"/>
<path d="M345.478 246H72V387H345.478C369.896 387 376 369.397 376 360.596V272.404C376 251.281 355.652 246 345.478 246Z" fill="#5751F8"/>
<path d="M184.797 319.078C184.797 326.797 183.391 333.25 180.578 338.438C177.766 343.594 173.688 347.484 168.344 350.109C163.031 352.703 156.578 354 148.984 354H130.375V285.469H151.047C158.016 285.469 164.016 286.75 169.047 289.312C174.078 291.844 177.953 295.609 180.672 300.609C183.422 305.578 184.797 311.734 184.797 319.078ZM176.406 319.359C176.406 313.203 175.375 308.125 173.312 304.125C171.281 300.125 168.281 297.156 164.312 295.219C160.375 293.25 155.547 292.266 149.828 292.266H138.344V347.156H148.047C157.484 347.156 164.562 344.828 169.281 340.172C174.031 335.516 176.406 328.578 176.406 319.359ZM259.469 319.641C259.469 324.922 258.797 329.734 257.453 334.078C256.109 338.391 254.109 342.109 251.453 345.234C248.828 348.328 245.562 350.719 241.656 352.406C237.75 354.094 233.219 354.938 228.062 354.938C222.75 354.938 218.109 354.094 214.141 352.406C210.203 350.719 206.922 348.312 204.297 345.188C201.703 342.062 199.75 338.328 198.438 333.984C197.156 329.641 196.516 324.828 196.516 319.547C196.516 312.547 197.672 306.406 199.984 301.125C202.297 295.844 205.797 291.734 210.484 288.797C215.203 285.859 221.109 284.391 228.203 284.391C234.984 284.391 240.688 285.844 245.312 288.75C249.969 291.656 253.484 295.75 255.859 301.031C258.266 306.281 259.469 312.484 259.469 319.641ZM204.906 319.641C204.906 325.453 205.734 330.484 207.391 334.734C209.047 338.984 211.578 342.266 214.984 344.578C218.422 346.891 222.781 348.047 228.062 348.047C233.375 348.047 237.719 346.891 241.094 344.578C244.5 342.266 247.016 338.984 248.641 334.734C250.266 330.484 251.078 325.453 251.078 319.641C251.078 310.797 249.219 303.891 245.5 298.922C241.812 293.922 236.047 291.422 228.203 291.422C222.891 291.422 218.516 292.562 215.078 294.844C211.641 297.125 209.078 300.375 207.391 304.594C205.734 308.781 204.906 313.797 204.906 319.641ZM304.047 291.516C300.266 291.516 296.859 292.172 293.828 293.484C290.828 294.766 288.266 296.641 286.141 299.109C284.047 301.547 282.438 304.5 281.312 307.969C280.188 311.438 279.625 315.344 279.625 319.688C279.625 325.438 280.516 330.438 282.297 334.688C284.109 338.906 286.797 342.172 290.359 344.484C293.953 346.797 298.438 347.953 303.812 347.953C306.875 347.953 309.75 347.703 312.438 347.203C315.156 346.672 317.797 346.016 320.359 345.234V352.172C317.859 353.109 315.234 353.797 312.484 354.234C309.734 354.703 306.469 354.938 302.688 354.938C295.719 354.938 289.891 353.5 285.203 350.625C280.547 347.719 277.047 343.625 274.703 338.344C272.391 333.062 271.234 326.828 271.234 319.641C271.234 314.453 271.953 309.719 273.391 305.438C274.859 301.125 276.984 297.406 279.766 294.281C282.578 291.156 286.016 288.75 290.078 287.062C294.172 285.344 298.859 284.484 304.141 284.484C307.609 284.484 310.953 284.828 314.172 285.516C317.391 286.203 320.297 287.188 322.891 288.469L319.703 295.219C317.516 294.219 315.109 293.359 312.484 292.641C309.891 291.891 307.078 291.516 304.047 291.516Z" fill="white"/>
<rect x="106" y="180" width="247" height="11" rx="5.5" fill="#827F7F"/>
<rect x="106" y="213" width="247" height="11" rx="5.5" fill="#827F7F"/>
<rect x="106" y="409" width="247" height="11" rx="5.5" fill="#827F7F"/>
</svg>
