<svg width="368" height="512" viewBox="0 0 368 512" fill="none" xmlns="http://www.w3.org/2000/svg">
<path d="M0 481V38.5V30C0 7.6 23.2911 0.666667 34.9367 0H211.949L368 134V481C368 504.2 343.932 511.333 331.899 512H36.1013C9.08354 512 0.776371 491.333 0 481Z" fill="#D9D9D9"/>
<path d="M368 133.906L212 0V116.418C212 132.007 225.582 134.572 232.373 133.906H368Z" fill="#827F7F"/>
<path d="M273.478 246H0V387H273.478C297.896 387 304 369.397 304 360.596V272.404C304 251.281 283.652 246 273.478 246Z" fill="#3C3C3C"/>
<path d="M87 341.625V338.375C87 335.042 87.3125 332.188 87.9375 329.812C88.5625 327.396 89.6458 325.146 91.1875 323.062C92.7708 320.979 94.9583 318.771 97.75 316.438C101 313.729 103.562 311.438 105.438 309.562C107.354 307.646 108.729 305.729 109.562 303.812C110.396 301.896 110.812 299.583 110.812 296.875C110.812 292.542 109.417 289.229 106.625 286.938C103.833 284.604 99.8958 283.438 94.8125 283.438C90.6875 283.438 87.0208 283.958 83.8125 285C80.6042 286.042 77.5208 287.292 74.5625 288.75L70.9375 280.375C74.3542 278.583 78.0625 277.125 82.0625 276C86.0625 274.875 90.5208 274.312 95.4375 274.312C103.479 274.312 109.708 276.312 114.125 280.312C118.542 284.271 120.75 289.729 120.75 296.688C120.75 300.562 120.125 303.875 118.875 306.625C117.625 309.333 115.854 311.833 113.562 314.125C111.271 316.375 108.562 318.771 105.438 321.312C102.688 323.646 100.583 325.708 99.125 327.5C97.6667 329.25 96.6667 331.062 96.125 332.938C95.5833 334.771 95.3125 336.979 95.3125 339.562V341.625H87ZM84.25 360.5C84.25 357.583 84.9375 355.521 86.3125 354.312C87.6875 353.062 89.4583 352.438 91.625 352.438C93.6667 352.438 95.3958 353.062 96.8125 354.312C98.2708 355.521 99 357.583 99 360.5C99 363.375 98.2708 365.479 96.8125 366.812C95.3958 368.104 93.6667 368.75 91.625 368.75C89.4583 368.75 87.6875 368.104 86.3125 366.812C84.9375 365.479 84.25 363.375 84.25 360.5ZM142.25 341.625V338.375C142.25 335.042 142.562 332.188 143.188 329.812C143.812 327.396 144.896 325.146 146.438 323.062C148.021 320.979 150.208 318.771 153 316.438C156.25 313.729 158.812 311.438 160.688 309.562C162.604 307.646 163.979 305.729 164.812 303.812C165.646 301.896 166.062 299.583 166.062 296.875C166.062 292.542 164.667 289.229 161.875 286.938C159.083 284.604 155.146 283.438 150.062 283.438C145.938 283.438 142.271 283.958 139.062 285C135.854 286.042 132.771 287.292 129.812 288.75L126.188 280.375C129.604 278.583 133.312 277.125 137.312 276C141.312 274.875 145.771 274.312 150.688 274.312C158.729 274.312 164.958 276.312 169.375 280.312C173.792 284.271 176 289.729 176 296.688C176 300.562 175.375 303.875 174.125 306.625C172.875 309.333 171.104 311.833 168.812 314.125C166.521 316.375 163.812 318.771 160.688 321.312C157.938 323.646 155.833 325.708 154.375 327.5C152.917 329.25 151.917 331.062 151.375 332.938C150.833 334.771 150.562 336.979 150.562 339.562V341.625H142.25ZM139.5 360.5C139.5 357.583 140.188 355.521 141.562 354.312C142.938 353.062 144.708 352.438 146.875 352.438C148.917 352.438 150.646 353.062 152.062 354.312C153.521 355.521 154.25 357.583 154.25 360.5C154.25 363.375 153.521 365.479 152.062 366.812C150.646 368.104 148.917 368.75 146.875 368.75C144.708 368.75 142.938 368.104 141.562 366.812C140.188 365.479 139.5 363.375 139.5 360.5ZM197.5 341.625V338.375C197.5 335.042 197.812 332.188 198.438 329.812C199.062 327.396 200.146 325.146 201.688 323.062C203.271 320.979 205.458 318.771 208.25 316.438C211.5 313.729 214.062 311.438 215.938 309.562C217.854 307.646 219.229 305.729 220.062 303.812C220.896 301.896 221.312 299.583 221.312 296.875C221.312 292.542 219.917 289.229 217.125 286.938C214.333 284.604 210.396 283.438 205.312 283.438C201.188 283.438 197.521 283.958 194.312 285C191.104 286.042 188.021 287.292 185.062 288.75L181.438 280.375C184.854 278.583 188.562 277.125 192.562 276C196.562 274.875 201.021 274.312 205.938 274.312C213.979 274.312 220.208 276.312 224.625 280.312C229.042 284.271 231.25 289.729 231.25 296.688C231.25 300.562 230.625 303.875 229.375 306.625C228.125 309.333 226.354 311.833 224.062 314.125C221.771 316.375 219.062 318.771 215.938 321.312C213.188 323.646 211.083 325.708 209.625 327.5C208.167 329.25 207.167 331.062 206.625 332.938C206.083 334.771 205.812 336.979 205.812 339.562V341.625H197.5ZM194.75 360.5C194.75 357.583 195.438 355.521 196.812 354.312C198.188 353.062 199.958 352.438 202.125 352.438C204.167 352.438 205.896 353.062 207.312 354.312C208.771 355.521 209.5 357.583 209.5 360.5C209.5 363.375 208.771 365.479 207.312 366.812C205.896 368.104 204.167 368.75 202.125 368.75C199.958 368.75 198.188 368.104 196.812 366.812C195.438 365.479 194.75 363.375 194.75 360.5Z" fill="white"/>
<rect x="34" y="180" width="247" height="11" rx="5.5" fill="#827F7F"/>
<rect x="34" y="213" width="247" height="11" rx="5.5" fill="#827F7F"/>
<rect x="34" y="409" width="247" height="11" rx="5.5" fill="#827F7F"/>
</svg>
