<svg width="512" height="512" viewBox="0 0 512 512" fill="none" xmlns="http://www.w3.org/2000/svg">
<path d="M28 154C9.2 154 1.5 172.667 0 182V431C0 457.4 21.3333 463.333 32 463H481C505.8 463 511.667 442.667 511.5 432.5V187C511.5 159 489.5 153.333 478.5 154H28Z" fill="#FFD041"/>
<path d="M0 76V157C6 146.6 20.5 143.333 27 143H485.5C498.3 143 508.5 152.333 512 157V131.5C512 110.7 494.333 105.167 485.5 105H265.5C252.3 105 240.667 99 236.5 96C226.667 88.8333 203.7 71.9 190.5 61.5C177.3 51.1 163.333 48.8333 158 49H27C8.6 49 1.33333 67 0 76Z" fill="#FFD041"/>
</svg>
