<svg width="512" height="512" viewBox="0 0 512 512" fill="none" xmlns="http://www.w3.org/2000/svg">
<g clip-path="url(#clip0_78_145)">
<mask id="path-1-inside-1_78_145" fill="white">
<path fill-rule="evenodd" clip-rule="evenodd" d="M256.002 434.325C355.98 434.325 437.027 353.277 437.027 253.3C437.027 153.323 355.98 72.2749 256.002 72.2749C156.025 72.2749 74.9771 153.323 74.9771 253.3C74.9771 353.277 156.025 434.325 256.002 434.325ZM256.002 336.85C302.146 336.85 339.552 299.444 339.552 253.3C339.552 207.157 302.146 169.75 256.002 169.75C209.859 169.75 172.452 207.157 172.452 253.3C172.452 299.444 209.859 336.85 256.002 336.85Z"/>
</mask>
<path fill-rule="evenodd" clip-rule="evenodd" d="M256.002 434.325C355.98 434.325 437.027 353.277 437.027 253.3C437.027 153.323 355.98 72.2749 256.002 72.2749C156.025 72.2749 74.9771 153.323 74.9771 253.3C74.9771 353.277 156.025 434.325 256.002 434.325ZM256.002 336.85C302.146 336.85 339.552 299.444 339.552 253.3C339.552 207.157 302.146 169.75 256.002 169.75C209.859 169.75 172.452 207.157 172.452 253.3C172.452 299.444 209.859 336.85 256.002 336.85Z" fill="#828282"/>
<path d="M435.645 253.3C435.645 352.514 355.216 432.943 256.002 432.943V435.707C356.743 435.707 438.409 354.041 438.409 253.3H435.645ZM256.002 73.6568C355.216 73.6568 435.645 154.086 435.645 253.3H438.409C438.409 152.559 356.743 70.893 256.002 70.893V73.6568ZM76.3589 253.3C76.3589 154.086 156.788 73.6568 256.002 73.6568V70.893C155.262 70.893 73.5952 152.559 73.5952 253.3H76.3589ZM256.002 432.943C156.788 432.943 76.3589 352.514 76.3589 253.3H73.5952C73.5952 354.041 155.262 435.707 256.002 435.707V432.943ZM338.171 253.3C338.171 298.68 301.383 335.468 256.002 335.468V338.232C302.909 338.232 340.934 300.207 340.934 253.3H338.171ZM256.002 171.132C301.383 171.132 338.171 207.92 338.171 253.3H340.934C340.934 206.394 302.909 168.368 256.002 168.368V171.132ZM173.834 253.3C173.834 207.92 210.622 171.132 256.002 171.132V168.368C209.096 168.368 171.07 206.394 171.07 253.3H173.834ZM256.002 335.468C210.622 335.468 173.834 298.68 173.834 253.3H171.07C171.07 300.207 209.096 338.232 256.002 338.232V335.468Z" fill="#828282" mask="url(#path-1-inside-1_78_145)"/>
<path d="M154.616 146.205L184.752 17.6909H327.253L357.389 146.205H154.616Z" fill="#828282" stroke="#828282" stroke-width="1.38187"/>
<path d="M335.678 119.292L467.47 111.887L507.735 248.582L392.973 313.802L335.678 119.292Z" fill="#828282" stroke="#828282" stroke-width="1.38187"/>
<path d="M119.017 313.799L4.25134 248.584L44.5093 111.888L176.302 119.286L119.017 313.799Z" fill="#828282" stroke="#828282" stroke-width="1.38187"/>
<path d="M265.664 409.604L159.971 488.68L50.8088 397.082L110.331 279.263L265.664 409.604Z" fill="#828282" stroke="#828282" stroke-width="1.38187"/>
<path d="M400.011 279.263L459.533 397.082L350.37 488.68L244.677 409.604L400.011 279.263Z" fill="#828282" stroke="#828282" stroke-width="1.38187"/>
<path d="M50.327 189.173L256 39.7426L461.673 189.173L383.113 430.956H128.887L50.327 189.173Z" stroke="#828282" stroke-width="19"/>
</g>
<defs>
<clipPath id="clip0_78_145">
<rect width="512" height="512" fill="white"/>
</clipPath>
</defs>
</svg>
