<svg width="512" height="512" viewBox="0 0 512 512" fill="none" xmlns="http://www.w3.org/2000/svg">
<path d="M72 481V38.5V30C72 7.6 95.2911 0.666667 106.937 0H283.949L440 134V481C440 504.2 415.932 511.333 403.898 512H108.101C81.0835 512 72.7764 491.333 72 481Z" fill="#D9D9D9"/>
<path d="M440 133.906L284 0V116.418C284 132.007 297.582 134.572 304.373 133.906H440Z" fill="#827F7F"/>
<path d="M345.478 246H71.9998V387H345.478C369.895 387 376 369.397 376 360.596V272.405C376 251.281 355.652 246 345.478 246Z" fill="#5751F8"/>
<path d="M156.797 319.078C156.797 326.797 155.391 333.25 152.578 338.437C149.766 343.594 145.688 347.484 140.344 350.109C135.031 352.703 128.578 354 120.985 354H102.375V285.469H123.047C130.016 285.469 136.016 286.75 141.047 289.312C146.078 291.844 149.953 295.609 152.672 300.609C155.422 305.578 156.797 311.734 156.797 319.078ZM148.406 319.359C148.406 313.203 147.375 308.125 145.313 304.125C143.281 300.125 140.281 297.156 136.313 295.219C132.375 293.25 127.547 292.266 121.828 292.266H110.344V347.156H120.047C129.485 347.156 136.563 344.828 141.281 340.172C146.031 335.516 148.406 328.578 148.406 319.359ZM231.469 319.641C231.469 324.922 230.797 329.734 229.453 334.078C228.11 338.391 226.11 342.109 223.453 345.234C220.828 348.328 217.563 350.719 213.656 352.406C209.75 354.094 205.219 354.938 200.063 354.938C194.75 354.938 190.11 354.094 186.141 352.406C182.203 350.719 178.922 348.312 176.297 345.187C173.703 342.062 171.75 338.328 170.438 333.984C169.156 329.641 168.516 324.828 168.516 319.547C168.516 312.547 169.672 306.406 171.985 301.125C174.297 295.844 177.797 291.734 182.485 288.797C187.203 285.859 193.11 284.391 200.203 284.391C206.985 284.391 212.688 285.844 217.313 288.75C221.969 291.656 225.485 295.75 227.86 301.031C230.266 306.281 231.469 312.484 231.469 319.641ZM176.906 319.641C176.906 325.453 177.735 330.484 179.391 334.734C181.047 338.984 183.578 342.266 186.985 344.578C190.422 346.891 194.781 348.047 200.063 348.047C205.375 348.047 209.719 346.891 213.094 344.578C216.5 342.266 219.016 338.984 220.641 334.734C222.266 330.484 223.078 325.453 223.078 319.641C223.078 310.797 221.219 303.891 217.5 298.922C213.813 293.922 208.047 291.422 200.203 291.422C194.891 291.422 190.516 292.562 187.078 294.844C183.641 297.125 181.078 300.375 179.391 304.594C177.735 308.781 176.906 313.797 176.906 319.641ZM276.047 291.516C272.266 291.516 268.86 292.172 265.828 293.484C262.828 294.766 260.266 296.641 258.141 299.109C256.047 301.547 254.438 304.5 253.313 307.969C252.188 311.437 251.625 315.344 251.625 319.687C251.625 325.437 252.516 330.437 254.297 334.687C256.11 338.906 258.797 342.172 262.36 344.484C265.953 346.797 270.438 347.953 275.813 347.953C278.875 347.953 281.75 347.703 284.438 347.203C287.156 346.672 289.797 346.016 292.36 345.234V352.172C289.86 353.109 287.235 353.797 284.485 354.234C281.735 354.703 278.469 354.938 274.688 354.938C267.719 354.938 261.891 353.5 257.203 350.625C252.547 347.719 249.047 343.625 246.703 338.344C244.391 333.062 243.235 326.828 243.235 319.641C243.235 314.453 243.953 309.719 245.391 305.437C246.86 301.125 248.985 297.406 251.766 294.281C254.578 291.156 258.016 288.75 262.078 287.062C266.172 285.344 270.86 284.484 276.141 284.484C279.61 284.484 282.953 284.828 286.172 285.516C289.391 286.203 292.297 287.187 294.891 288.469L291.703 295.219C289.516 294.219 287.11 293.359 284.485 292.641C281.891 291.891 279.078 291.516 276.047 291.516ZM352.969 354H343.922L325.406 323.812L306.61 354H298.125L320.953 318.281L299.719 285.469H308.578L325.688 312.797L342.891 285.469H351.328L330.141 318.141L352.969 354Z" fill="white"/>
<rect x="106" y="179.999" width="247" height="11" rx="5.5" fill="#827F7F"/>
<rect x="106" y="213" width="247" height="11" rx="5.5" fill="#827F7F"/>
<rect x="106" y="409" width="247" height="11" rx="5.5" fill="#827F7F"/>
<rect x="137.085" y="65.0847" width="8.67796" height="69.4237" rx="4.33898" fill="#827F7F"/>
<rect x="176.136" y="95.4576" width="8.67797" height="69.4237" rx="4.33898" transform="rotate(90 176.136 95.4576)" fill="#827F7F"/>
<rect x="169.037" y="121.273" width="8.67796" height="69.4237" rx="4.33898" transform="rotate(135 169.037 121.273)" fill="#827F7F"/>
<rect x="162.901" y="72.1833" width="8.67796" height="69.4237" rx="4.33898" transform="rotate(45 162.901 72.1833)" fill="#827F7F"/>
</svg>
