<svg width="512" height="512" viewBox="0 0 512 512" fill="none" xmlns="http://www.w3.org/2000/svg">
<g clip-path="url(#clip0_73_14)">
<line x1="506.735" y1="275.666" x2="349.196" y2="433.204" stroke="#DFDFDF" stroke-width="13.1282"/>
<line x1="77.2953" y1="78.7425" x2="5.0902" y2="150.948" stroke="#DFDFDF" stroke-width="13.1282"/>
<line x1="390.476" y1="78.7425" x2="36.0149" y2="433.204" stroke="#DFDFDF" stroke-width="13.1282"/>
<line x1="234.969" y1="77.6591" x2="5.22531" y2="307.403" stroke="#DFDFDF" stroke-width="13.1282"/>
<line x1="506.577" y1="119.232" x2="191.5" y2="434.309" stroke="#DFDFDF" stroke-width="13.1282"/>
<rect x="6.5641" y="78.7692" width="498.872" height="354.462" stroke="black" stroke-width="13.1282"/>
<path d="M92.1425 394.479C86.331 394.479 80.9397 393.569 75.9685 391.748C71.0673 389.858 66.7963 387.197 63.1554 383.766C59.5845 380.335 56.7838 376.309 54.7533 371.688C52.7228 366.997 51.7076 361.851 51.7076 356.25C51.7076 350.648 52.7228 345.537 54.7533 340.916C56.7838 336.225 59.5845 332.164 63.1554 328.733C66.7963 325.302 71.0673 322.676 75.9685 320.856C80.9397 318.965 86.331 318.02 92.1425 318.02C98.9341 318.02 104.991 319.211 110.312 321.591C115.703 323.972 120.184 327.403 123.755 331.884L110.522 343.857C108.141 341.056 105.516 338.92 102.645 337.45C99.8444 335.98 96.6936 335.244 93.1927 335.244C90.182 335.244 87.4163 335.735 84.8957 336.715C82.3751 337.695 80.2046 339.13 78.3841 341.021C76.6337 342.841 75.2333 345.047 74.1831 347.637C73.2028 350.228 72.7127 353.099 72.7127 356.25C72.7127 359.4 73.2028 362.271 74.1831 364.862C75.2333 367.452 76.6337 369.693 78.3841 371.583C80.2046 373.404 82.3751 374.804 84.8957 375.784C87.4163 376.765 90.182 377.255 93.1927 377.255C96.6936 377.255 99.8444 376.52 102.645 375.049C105.516 373.579 108.141 371.443 110.522 368.643L123.755 380.616C120.184 385.027 115.703 388.457 110.312 390.908C104.991 393.289 98.9341 394.479 92.1425 394.479ZM132.082 393.009V336.085H151.091V352.679L148.256 347.953C149.936 343.681 152.667 340.496 156.448 338.395C160.229 336.225 164.815 335.139 170.206 335.139V353.099C169.296 352.959 168.491 352.889 167.79 352.889C167.16 352.819 166.46 352.784 165.69 352.784C161.629 352.784 158.338 353.904 155.818 356.145C153.297 358.315 152.037 361.886 152.037 366.857V393.009H132.082ZM207.755 393.954C201.034 393.954 195.152 392.693 190.111 390.173C185.14 387.582 181.254 384.081 178.453 379.67C175.722 375.189 174.357 370.113 174.357 364.442C174.357 358.77 175.687 353.729 178.348 349.318C181.079 344.837 184.825 341.371 189.586 338.92C194.347 336.4 199.703 335.139 205.655 335.139C211.256 335.139 216.367 336.295 220.988 338.605C225.61 340.846 229.285 344.172 232.016 348.583C234.747 352.994 236.112 358.35 236.112 364.652C236.112 365.352 236.077 366.157 236.007 367.067C235.937 367.977 235.867 368.818 235.797 369.588H190.741V359.085H225.189L217.628 362.026C217.698 359.435 217.208 357.195 216.157 355.304C215.177 353.414 213.777 351.944 211.956 350.893C210.206 349.843 208.14 349.318 205.76 349.318C203.379 349.318 201.279 349.843 199.458 350.893C197.708 351.944 196.342 353.449 195.362 355.409C194.382 357.3 193.892 359.54 193.892 362.131V365.177C193.892 367.977 194.452 370.393 195.572 372.424C196.763 374.454 198.443 376.029 200.613 377.15C202.784 378.2 205.375 378.725 208.385 378.725C211.186 378.725 213.567 378.34 215.527 377.57C217.558 376.73 219.553 375.469 221.514 373.789L232.016 384.712C229.285 387.722 225.925 390.033 221.934 391.643C217.943 393.184 213.217 393.954 207.755 393.954ZM278.538 393.009V382.401L277.172 379.775V360.241C277.172 357.09 276.192 354.674 274.232 352.994C272.341 351.243 269.295 350.368 265.094 350.368C262.364 350.368 259.598 350.823 256.797 351.733C253.997 352.574 251.616 353.764 249.656 355.304L242.934 341.756C246.155 339.656 250.006 338.045 254.487 336.925C259.038 335.735 263.554 335.139 268.035 335.139C277.277 335.139 284.419 337.275 289.46 341.546C294.571 345.747 297.127 352.364 297.127 361.396V393.009H278.538ZM261.733 393.954C257.182 393.954 253.331 393.184 250.181 391.643C247.03 390.103 244.614 388.002 242.934 385.342C241.323 382.681 240.518 379.705 240.518 376.414C240.518 372.914 241.393 369.903 243.144 367.382C244.964 364.792 247.73 362.831 251.441 361.501C255.152 360.101 259.948 359.4 265.829 359.4H279.273V369.798H268.56C265.339 369.798 263.064 370.323 261.733 371.373C260.473 372.424 259.843 373.824 259.843 375.574C259.843 377.325 260.508 378.725 261.838 379.775C263.169 380.826 264.989 381.351 267.3 381.351C269.47 381.351 271.431 380.826 273.181 379.775C275.002 378.655 276.332 376.975 277.172 374.734L279.903 382.086C278.853 386.007 276.787 388.983 273.706 391.013C270.696 392.974 266.705 393.954 261.733 393.954ZM335.139 393.954C327.857 393.954 322.186 392.168 318.125 388.597C314.064 384.957 312.033 379.495 312.033 372.213V323.377H331.988V372.003C331.988 374.034 332.548 375.644 333.669 376.835C334.789 377.955 336.224 378.515 337.975 378.515C340.355 378.515 342.386 377.92 344.066 376.73L349.002 390.698C347.322 391.818 345.256 392.623 342.806 393.114C340.355 393.674 337.8 393.954 335.139 393.954ZM303.736 353.099V338.185H345.011V353.099H303.736ZM383.623 393.954C377.392 393.954 371.86 392.693 367.029 390.173C362.198 387.652 358.382 384.186 355.581 379.775C352.851 375.294 351.485 370.183 351.485 364.442C351.485 358.7 352.851 353.624 355.581 349.213C358.382 344.802 362.198 341.371 367.029 338.92C371.86 336.4 377.392 335.139 383.623 335.139C389.855 335.139 395.386 336.4 400.217 338.92C405.118 341.371 408.934 344.802 411.665 349.213C414.396 353.624 415.761 358.7 415.761 364.442C415.761 370.183 414.396 375.294 411.665 379.775C408.934 384.186 405.118 387.652 400.217 390.173C395.386 392.693 389.855 393.954 383.623 393.954ZM383.623 378.095C385.934 378.095 387.964 377.57 389.715 376.52C391.535 375.469 392.97 373.929 394.021 371.898C395.071 369.798 395.596 367.312 395.596 364.442C395.596 361.571 395.071 359.155 394.021 357.195C392.97 355.164 391.535 353.624 389.715 352.574C387.964 351.523 385.934 350.998 383.623 350.998C381.383 350.998 379.352 351.523 377.532 352.574C375.781 353.624 374.346 355.164 373.226 357.195C372.175 359.155 371.65 361.571 371.65 364.442C371.65 367.312 372.175 369.798 373.226 371.898C374.346 373.929 375.781 375.469 377.532 376.52C379.352 377.57 381.383 378.095 383.623 378.095ZM425.005 393.009V336.085H444.015V352.679L441.179 347.953C442.859 343.681 445.59 340.496 449.371 338.395C453.152 336.225 457.738 335.139 463.129 335.139V353.099C462.219 352.959 461.414 352.889 460.714 352.889C460.083 352.819 459.383 352.784 458.613 352.784C454.552 352.784 451.261 353.904 448.741 356.145C446.22 358.315 444.96 361.886 444.96 366.857V393.009H425.005Z" fill="black"/>
<path d="M79.8895 307.675V250.646H57.309V234.157H123.16V250.646H100.685V307.675H79.8895ZM129.962 307.675V250.751H149.917V307.675H129.962ZM139.94 244.45C136.299 244.45 133.358 243.435 131.117 241.404C128.877 239.374 127.757 236.853 127.757 233.842C127.757 230.831 128.877 228.311 131.117 226.28C133.358 224.25 136.299 223.235 139.94 223.235C143.58 223.235 146.521 224.215 148.762 226.175C151.002 228.066 152.123 230.516 152.123 233.527C152.123 236.678 151.002 239.304 148.762 241.404C146.591 243.435 143.65 244.45 139.94 244.45ZM191.977 308.62C185.676 308.62 180.039 307.36 175.068 304.84C170.167 302.319 166.316 298.853 163.515 294.442C160.715 289.961 159.314 284.85 159.314 279.108C159.314 273.367 160.715 268.291 163.515 263.88C166.316 259.468 170.167 256.038 175.068 253.587C180.039 251.066 185.676 249.806 191.977 249.806C198.419 249.806 203.985 251.171 208.676 253.902C213.368 256.633 216.693 260.484 218.654 265.455L203.215 273.332C201.885 270.671 200.239 268.746 198.279 267.555C196.318 266.295 194.183 265.665 191.872 265.665C189.562 265.665 187.461 266.19 185.571 267.24C183.68 268.291 182.175 269.831 181.055 271.861C180.004 273.822 179.479 276.238 179.479 279.108C179.479 282.049 180.004 284.535 181.055 286.565C182.175 288.596 183.68 290.136 185.571 291.186C187.461 292.236 189.562 292.762 191.872 292.762C194.183 292.762 196.318 292.166 198.279 290.976C200.239 289.716 201.885 287.755 203.215 285.095L218.654 292.972C216.693 297.943 213.368 301.794 208.676 304.524C203.985 307.255 198.419 308.62 191.977 308.62ZM242.556 297.173L243.081 273.332L266.292 250.751H289.923L264.192 277.323L254.004 285.515L242.556 297.173ZM225.962 307.675V229.746H245.917V307.675H225.962ZM267.762 307.675L250.328 285.83L262.721 270.496L291.918 307.675H267.762ZM325.328 308.62C318.606 308.62 312.725 307.36 307.684 304.84C302.712 302.249 298.826 298.748 296.026 294.337C293.295 289.856 291.93 284.78 291.93 279.108C291.93 273.437 293.26 268.396 295.921 263.985C298.651 259.503 302.397 256.038 307.158 253.587C311.92 251.066 317.276 249.806 323.227 249.806C328.829 249.806 333.94 250.961 338.561 253.272C343.182 255.512 346.858 258.838 349.589 263.249C352.319 267.66 353.685 273.017 353.685 279.318C353.685 280.018 353.65 280.824 353.58 281.734C353.51 282.644 353.44 283.484 353.37 284.255H308.314V273.752H342.762L335.2 276.693C335.27 274.102 334.78 271.861 333.73 269.971C332.75 268.081 331.349 266.61 329.529 265.56C327.779 264.51 325.713 263.985 323.332 263.985C320.952 263.985 318.851 264.51 317.031 265.56C315.28 266.61 313.915 268.116 312.935 270.076C311.955 271.967 311.465 274.207 311.465 276.798V279.843C311.465 282.644 312.025 285.06 313.145 287.09C314.335 289.121 316.016 290.696 318.186 291.816C320.357 292.867 322.947 293.392 325.958 293.392C328.759 293.392 331.139 293.007 333.1 292.236C335.13 291.396 337.126 290.136 339.086 288.456L349.589 299.378C346.858 302.389 343.497 304.7 339.506 306.31C335.515 307.85 330.789 308.62 325.328 308.62ZM388.301 308.62C381.02 308.62 375.348 306.835 371.287 303.264C367.226 299.623 365.196 294.162 365.196 286.88V238.043H385.151V286.67C385.151 288.701 385.711 290.311 386.831 291.501C387.951 292.622 389.387 293.182 391.137 293.182C393.518 293.182 395.548 292.587 397.229 291.396L402.165 305.365C400.484 306.485 398.419 307.29 395.968 307.78C393.518 308.34 390.962 308.62 388.301 308.62ZM356.899 267.765V252.852H398.174V267.765H356.899ZM430.55 308.62C425.718 308.62 420.992 308.06 416.371 306.94C411.82 305.82 408.144 304.419 405.343 302.739L411.33 289.086C413.991 290.696 417.106 291.991 420.677 292.972C424.248 293.882 427.749 294.337 431.18 294.337C434.541 294.337 436.851 293.987 438.111 293.287C439.442 292.587 440.107 291.641 440.107 290.451C440.107 289.331 439.477 288.526 438.217 288.035C437.026 287.475 435.416 287.055 433.385 286.775C431.425 286.495 429.254 286.18 426.874 285.83C424.493 285.48 422.078 285.025 419.627 284.465C417.246 283.834 415.041 282.924 413.01 281.734C411.05 280.474 409.475 278.793 408.284 276.693C407.094 274.592 406.499 271.932 406.499 268.711C406.499 265.07 407.549 261.849 409.65 259.048C411.82 256.178 414.971 253.937 419.102 252.327C423.233 250.646 428.274 249.806 434.226 249.806C438.217 249.806 442.243 250.226 446.304 251.066C450.435 251.837 453.9 253.027 456.701 254.637L450.715 268.186C447.914 266.575 445.113 265.49 442.313 264.93C439.512 264.3 436.851 263.985 434.331 263.985C430.97 263.985 428.589 264.37 427.189 265.14C425.859 265.91 425.193 266.855 425.193 267.976C425.193 269.096 425.788 269.971 426.979 270.601C428.169 271.161 429.744 271.616 431.705 271.967C433.735 272.247 435.941 272.562 438.322 272.912C440.702 273.192 443.083 273.647 445.463 274.277C447.914 274.907 450.119 275.852 452.08 277.113C454.11 278.303 455.721 279.948 456.911 282.049C458.101 284.079 458.697 286.705 458.697 289.926C458.697 293.427 457.611 296.578 455.441 299.378C453.34 302.179 450.189 304.419 445.988 306.1C441.857 307.78 436.711 308.62 430.55 308.62Z" fill="black"/>
<path d="M83.4253 154.695H128.936V175.42H83.4253V154.695ZM85.3858 193.344H136.638V214.769H57.9391V116.745H134.818V138.171H85.3858V193.344ZM141.532 214.769L176.4 168.978L175.84 184.102L142.372 138.871H172.339L191.104 165.617L179.901 166.177L199.786 138.871H227.933L194.465 183.121V168.558L228.913 214.769H198.526L178.921 186.202L190.124 187.743L170.379 214.769H141.532ZM282.039 214.769V200.626L280.218 197.125V171.079C280.218 166.878 278.911 163.657 276.297 161.416C273.777 159.082 269.716 157.915 264.114 157.915C260.473 157.915 256.786 158.522 253.052 159.736C249.317 160.856 246.143 162.443 243.529 164.497L234.567 146.433C238.861 143.632 243.996 141.485 249.971 139.991C256.039 138.404 262.06 137.61 268.035 137.61C280.358 137.61 289.881 140.458 296.602 146.152C303.417 151.754 306.825 160.576 306.825 172.619V214.769H282.039ZM259.633 216.03C253.565 216.03 248.43 215.003 244.229 212.949C240.028 210.895 236.808 208.094 234.567 204.547C232.42 200.999 231.346 197.032 231.346 192.644C231.346 187.976 232.513 183.962 234.847 180.601C237.274 177.147 240.962 174.533 245.91 172.759C250.858 170.892 257.253 169.958 265.095 169.958H283.019V183.822H268.735C264.441 183.822 261.407 184.522 259.633 185.922C257.953 187.323 257.113 189.19 257.113 191.524C257.113 193.857 257.999 195.725 259.773 197.125C261.547 198.525 263.974 199.225 267.055 199.225C269.949 199.225 272.563 198.525 274.897 197.125C277.324 195.631 279.098 193.391 280.218 190.403L283.859 200.206C282.459 205.434 279.705 209.401 275.597 212.109C271.583 214.723 266.261 216.03 259.633 216.03ZM422.483 137.61C428.365 137.61 433.593 138.824 438.167 141.251C442.835 143.585 446.476 147.226 449.09 152.174C451.797 157.122 453.151 163.517 453.151 171.359V214.769H426.544V175.7C426.544 170.285 425.517 166.364 423.463 163.937C421.41 161.416 418.609 160.156 415.061 160.156C412.541 160.156 410.253 160.763 408.2 161.976C406.146 163.19 404.559 165.057 403.438 167.578C402.318 170.005 401.758 173.179 401.758 177.1V214.769H375.152V175.7C375.152 170.285 374.125 166.364 372.071 163.937C370.11 161.416 367.31 160.156 363.669 160.156C361.055 160.156 358.721 160.763 356.667 161.976C354.707 163.19 353.12 165.057 351.906 167.578C350.786 170.005 350.225 173.179 350.225 177.1V214.769H323.619V138.871H348.965V160.016L343.924 153.994C346.725 148.58 350.552 144.519 355.407 141.811C360.261 139.011 365.676 137.61 371.651 137.61C378.466 137.61 384.441 139.384 389.575 142.932C394.803 146.386 398.304 151.801 400.078 159.176L391.396 157.355C394.103 151.194 398.164 146.386 403.579 142.932C409.087 139.384 415.388 137.61 422.483 137.61Z" fill="black"/>
</g>
<defs>
<clipPath id="clip0_73_14">
<rect width="512" height="512" fill="white"/>
</clipPath>
</defs>
</svg>
