<svg width="512" height="512" viewBox="0 0 512 512" fill="none" xmlns="http://www.w3.org/2000/svg">
<g clip-path="url(#clip0_215_2)">
<rect width="512" height="512" fill="url(#paint0_linear_215_2)"/>
<rect x="504.248" y="-198.109" width="16" height="910" transform="rotate(45 504.248 -198.109)" fill="#D9D9D9"/>
<rect x="977.59" y="-81.4367" width="16" height="910" transform="rotate(45 977.59 -81.4367)" fill="#D9D9D9"/>
<rect x="346.467" y="-237" width="16" height="910" transform="rotate(45 346.467 -237)" fill="#D9D9D9"/>
<rect x="819.81" y="-120.328" width="16" height="910" transform="rotate(45 819.81 -120.328)" fill="#D9D9D9"/>
<rect x="662.029" y="-159.219" width="16" height="910" transform="rotate(45 662.029 -159.219)" fill="#D9D9D9"/>
<path d="M200.704 225.975H381.206V308.173H200.704V225.975ZM208.479 379.263H411.752V464.237H99.6229V75.4644H404.532V160.439H208.479V379.263Z" fill="black"/>
</g>
<defs>
<linearGradient id="paint0_linear_215_2" x1="1.95514e-07" y1="266" x2="513.95" y2="260.904" gradientUnits="userSpaceOnUse">
<stop offset="0.192308" stop-color="#8ECC9F"/>
<stop offset="1" stop-color="#0C8CE8" stop-opacity="0.44"/>
</linearGradient>
<clipPath id="clip0_215_2">
<rect width="512" height="512" fill="white"/>
</clipPath>
</defs>
</svg>
