<svg width="512" height="512" viewBox="0 0 512 512" fill="none" xmlns="http://www.w3.org/2000/svg">
<g clip-path="url(#clip0_47_35)">
<rect x="87.3019" y="152.698" width="338.396" height="338.396" rx="37.1262" stroke="#828282" stroke-width="42.6038" stroke-miterlimit="2.13005"/>
<mask id="path-2-inside-1_47_35" fill="white">
<path d="M381.268 173.999C381.268 151.301 378.041 128.824 371.771 107.853C365.501 86.8816 356.31 67.8268 344.725 51.7762C333.139 35.7256 319.384 22.9936 304.247 14.3071C289.109 5.62054 272.885 1.14965 256.5 1.14965C240.115 1.14965 223.891 5.62055 208.753 14.3071C193.616 22.9936 179.861 35.7256 168.275 51.7762C156.69 67.8268 147.499 86.8816 141.229 107.853C134.959 128.824 131.732 151.301 131.732 174L256.5 173.999H381.268Z"/>
</mask>
<path d="M381.268 173.999C381.268 151.301 378.041 128.824 371.771 107.853C365.501 86.8816 356.31 67.8268 344.725 51.7762C333.139 35.7256 319.384 22.9936 304.247 14.3071C289.109 5.62054 272.885 1.14965 256.5 1.14965C240.115 1.14965 223.891 5.62055 208.753 14.3071C193.616 22.9936 179.861 35.7256 168.275 51.7762C156.69 67.8268 147.499 86.8816 141.229 107.853C134.959 128.824 131.732 151.301 131.732 174L256.5 173.999H381.268Z" stroke="#828282" stroke-width="85.2077" mask="url(#path-2-inside-1_47_35)"/>
<circle cx="256.397" cy="321.998" r="46.7296" fill="#828282"/>
</g>
<defs>
<clipPath id="clip0_47_35">
<rect width="512" height="512" fill="white"/>
</clipPath>
</defs>
</svg>
