<svg width="889" height="385" viewBox="0 0 889 385" fill="none" xmlns="http://www.w3.org/2000/svg">
<rect x="4.5" y="4.5" width="880" height="376" fill="#D9D9D9" stroke="#FF0000" stroke-width="9"/>
<path d="M94.568 177V132.2H113.96C116.776 132.2 119.293 132.84 121.512 134.12C123.731 135.4 125.48 137.149 126.76 139.368C128.04 141.544 128.68 144.04 128.68 146.856C128.68 149.715 128.04 152.296 126.76 154.6C125.48 156.904 123.731 158.717 121.512 160.04C119.293 161.363 116.776 162.024 113.96 162.024H105.512V177H94.568ZM105.384 152.36H112.488C113.427 152.36 114.259 152.147 114.984 151.72C115.752 151.251 116.371 150.611 116.84 149.8C117.309 148.989 117.544 148.072 117.544 147.048C117.544 145.981 117.309 145.064 116.84 144.296C116.371 143.528 115.752 142.931 114.984 142.504C114.259 142.077 113.427 141.864 112.488 141.864H105.384V152.36ZM143.599 177V129.64H153.903V177H143.599ZM186.284 177.64C182.529 177.64 179.244 176.893 176.428 175.4C173.654 173.907 171.5 171.859 169.964 169.256C168.47 166.611 167.724 163.603 167.724 160.232C167.724 157.587 168.15 155.176 169.004 153C169.857 150.781 171.052 148.883 172.588 147.304C174.166 145.725 176.001 144.509 178.092 143.656C180.225 142.76 182.55 142.312 185.068 142.312C187.457 142.312 189.633 142.739 191.596 143.592C193.558 144.445 195.265 145.64 196.716 147.176C198.166 148.712 199.276 150.525 200.044 152.616C200.812 154.707 201.174 156.989 201.132 159.464L201.068 162.28H174.06L172.524 156.456H192.684L191.596 157.608V156.328C191.51 155.261 191.169 154.344 190.572 153.576C190.017 152.765 189.27 152.125 188.332 151.656C187.436 151.187 186.412 150.952 185.26 150.952C183.553 150.952 182.102 151.293 180.908 151.976C179.756 152.616 178.881 153.555 178.284 154.792C177.686 156.029 177.388 157.565 177.388 159.4C177.388 161.235 177.772 162.856 178.54 164.264C179.35 165.672 180.502 166.76 181.996 167.528C183.532 168.296 185.345 168.68 187.436 168.68C188.844 168.68 190.124 168.467 191.276 168.04C192.428 167.613 193.665 166.888 194.988 165.864L199.788 172.648C198.465 173.757 197.057 174.696 195.564 175.464C194.07 176.189 192.534 176.723 190.956 177.064C189.42 177.448 187.862 177.64 186.284 177.64ZM233.446 177V156.136C233.446 154.387 232.955 153.107 231.974 152.296C231.035 151.443 229.713 151.016 228.006 151.016C226.342 151.016 224.849 151.336 223.526 151.976C222.246 152.573 221.009 153.576 219.814 154.984L213.67 149.032C215.718 146.941 218.065 145.299 220.71 144.104C223.355 142.909 226.235 142.312 229.35 142.312C232.209 142.312 234.683 142.739 236.774 143.592C238.865 144.445 240.486 145.747 241.638 147.496C242.79 149.245 243.366 151.464 243.366 154.152V177H233.446ZM224.614 177.64C222.481 177.64 220.539 177.213 218.79 176.36C217.083 175.507 215.718 174.333 214.694 172.84C213.713 171.304 213.222 169.512 213.222 167.464C213.222 165.715 213.542 164.179 214.182 162.856C214.822 161.533 215.761 160.445 216.998 159.592C218.278 158.696 219.857 158.035 221.734 157.608C223.654 157.139 225.873 156.904 228.39 156.904H238.694L238.118 163.368H228.646C227.75 163.368 226.961 163.453 226.278 163.624C225.595 163.752 225.019 163.987 224.55 164.328C224.081 164.627 223.718 164.989 223.462 165.416C223.249 165.843 223.142 166.355 223.142 166.952C223.142 167.592 223.313 168.147 223.654 168.616C223.995 169.085 224.443 169.448 224.998 169.704C225.595 169.96 226.278 170.088 227.046 170.088C228.155 170.088 229.201 169.917 230.182 169.576C231.206 169.192 232.102 168.659 232.87 167.976C233.681 167.293 234.321 166.504 234.79 165.608L236.582 170.216C235.686 171.667 234.598 172.947 233.318 174.056C232.081 175.165 230.715 176.04 229.222 176.68C227.771 177.32 226.235 177.64 224.614 177.64ZM270.72 177.64C267.477 177.64 264.576 177.128 262.016 176.104C259.456 175.037 257.408 173.587 255.872 171.752L262.144 166.376C263.467 167.699 264.96 168.68 266.624 169.32C268.288 169.917 269.867 170.216 271.36 170.216C271.915 170.216 272.405 170.152 272.832 170.024C273.259 169.896 273.621 169.725 273.92 169.512C274.261 169.256 274.517 168.979 274.688 168.68C274.859 168.339 274.944 167.955 274.944 167.528C274.944 166.675 274.581 166.035 273.856 165.608C273.515 165.395 272.896 165.139 272 164.84C271.104 164.499 269.952 164.157 268.544 163.816C266.539 163.304 264.789 162.685 263.296 161.96C261.845 161.235 260.651 160.403 259.712 159.464C258.859 158.611 258.197 157.629 257.728 156.52C257.301 155.411 257.088 154.173 257.088 152.808C257.088 150.717 257.707 148.883 258.944 147.304C260.224 145.725 261.888 144.509 263.936 143.656C265.984 142.76 268.203 142.312 270.592 142.312C272.469 142.312 274.24 142.525 275.904 142.952C277.611 143.379 279.189 143.976 280.64 144.744C282.133 145.512 283.456 146.429 284.608 147.496L279.168 153.576C278.443 152.851 277.589 152.211 276.608 151.656C275.627 151.059 274.645 150.589 273.664 150.248C272.683 149.864 271.765 149.672 270.912 149.672C270.272 149.672 269.696 149.736 269.184 149.864C268.715 149.949 268.309 150.12 267.968 150.376C267.669 150.589 267.435 150.867 267.264 151.208C267.093 151.507 267.008 151.848 267.008 152.232C267.008 152.701 267.115 153.128 267.328 153.512C267.584 153.853 267.925 154.173 268.352 154.472C268.736 154.685 269.397 154.963 270.336 155.304C271.317 155.645 272.597 156.029 274.176 156.456C276.181 157.011 277.888 157.651 279.296 158.376C280.747 159.059 281.899 159.869 282.752 160.808C283.477 161.533 283.989 162.387 284.288 163.368C284.629 164.307 284.8 165.331 284.8 166.44C284.8 168.616 284.181 170.557 282.944 172.264C281.749 173.928 280.085 175.251 277.952 176.232C275.861 177.171 273.451 177.64 270.72 177.64ZM314.823 177.64C311.069 177.64 307.783 176.893 304.967 175.4C302.194 173.907 300.039 171.859 298.503 169.256C297.01 166.611 296.263 163.603 296.263 160.232C296.263 157.587 296.69 155.176 297.543 153C298.397 150.781 299.591 148.883 301.127 147.304C302.706 145.725 304.541 144.509 306.631 143.656C308.765 142.76 311.09 142.312 313.607 142.312C315.997 142.312 318.173 142.739 320.135 143.592C322.098 144.445 323.805 145.64 325.255 147.176C326.706 148.712 327.815 150.525 328.583 152.616C329.351 154.707 329.714 156.989 329.671 159.464L329.607 162.28H302.599L301.063 156.456H321.223L320.135 157.608V156.328C320.05 155.261 319.709 154.344 319.111 153.576C318.557 152.765 317.81 152.125 316.871 151.656C315.975 151.187 314.951 150.952 313.799 150.952C312.093 150.952 310.642 151.293 309.447 151.976C308.295 152.616 307.421 153.555 306.823 154.792C306.226 156.029 305.927 157.565 305.927 159.4C305.927 161.235 306.311 162.856 307.079 164.264C307.89 165.672 309.042 166.76 310.535 167.528C312.071 168.296 313.885 168.68 315.975 168.68C317.383 168.68 318.663 168.467 319.815 168.04C320.967 167.613 322.205 166.888 323.527 165.864L328.327 172.648C327.005 173.757 325.597 174.696 324.103 175.464C322.61 176.189 321.074 176.723 319.495 177.064C317.959 177.448 316.402 177.64 314.823 177.64ZM367.448 177L385.176 132.2H394.456L412.056 177H401.048L392.536 154.28C392.237 153.384 391.896 152.424 391.512 151.4C391.17 150.376 390.829 149.309 390.488 148.2C390.146 147.091 389.826 146.024 389.528 145C389.229 143.976 388.973 143.016 388.76 142.12L390.616 142.056C390.36 143.123 390.082 144.168 389.784 145.192C389.485 146.216 389.165 147.24 388.824 148.264C388.482 149.288 388.12 150.312 387.736 151.336C387.394 152.317 387.032 153.341 386.648 154.408L378.2 177H367.448ZM375.896 168.424L379.352 160.104H399.832L403.288 168.424H375.896ZM437.959 177.64C434.673 177.64 431.708 176.872 429.063 175.336C426.46 173.8 424.412 171.709 422.919 169.064C421.425 166.376 420.679 163.368 420.679 160.04C420.679 156.627 421.425 153.597 422.919 150.952C424.412 148.264 426.46 146.152 429.063 144.616C431.708 143.08 434.673 142.312 437.959 142.312C440.988 142.312 443.761 142.867 446.279 143.976C448.839 145.043 450.844 146.515 452.295 148.392L446.727 155.176C446.172 154.451 445.489 153.789 444.679 153.192C443.868 152.595 442.972 152.125 441.991 151.784C441.009 151.443 439.985 151.272 438.919 151.272C437.297 151.272 435.868 151.656 434.631 152.424C433.393 153.149 432.433 154.173 431.751 155.496C431.068 156.819 430.727 158.312 430.727 159.976C430.727 161.597 431.068 163.069 431.751 164.392C432.476 165.672 433.457 166.696 434.695 167.464C435.932 168.232 437.319 168.616 438.855 168.616C439.964 168.616 440.988 168.467 441.927 168.168C442.865 167.869 443.719 167.443 444.487 166.888C445.297 166.333 446.044 165.672 446.727 164.904L452.295 171.688C450.844 173.48 448.817 174.931 446.215 176.04C443.612 177.107 440.86 177.64 437.959 177.64ZM468.417 177V134.44H478.721V177H468.417ZM462.401 152.04V143.016H485.249V152.04H462.401ZM499.42 177V143.016H509.724V177H499.42ZM504.604 136.296C502.641 136.296 501.105 135.848 499.996 134.952C498.929 134.013 498.396 132.691 498.396 130.984C498.396 129.405 498.951 128.125 500.06 127.144C501.169 126.163 502.684 125.672 504.604 125.672C506.481 125.672 507.953 126.141 509.02 127.08C510.129 127.976 510.684 129.277 510.684 130.984C510.684 132.563 510.129 133.843 509.02 134.824C507.953 135.805 506.481 136.296 504.604 136.296ZM537.583 177L523.375 143.016H534.703L543.151 168.168L540.655 168.488L549.359 143.016H560.623L545.647 177H537.583ZM590.816 177V156.136C590.816 154.387 590.325 153.107 589.344 152.296C588.405 151.443 587.083 151.016 585.376 151.016C583.712 151.016 582.219 151.336 580.896 151.976C579.616 152.573 578.379 153.576 577.184 154.984L571.04 149.032C573.088 146.941 575.435 145.299 578.08 144.104C580.725 142.909 583.605 142.312 586.72 142.312C589.579 142.312 592.053 142.739 594.144 143.592C596.235 144.445 597.856 145.747 599.008 147.496C600.16 149.245 600.736 151.464 600.736 154.152V177H590.816ZM581.984 177.64C579.851 177.64 577.909 177.213 576.16 176.36C574.453 175.507 573.088 174.333 572.064 172.84C571.083 171.304 570.592 169.512 570.592 167.464C570.592 165.715 570.912 164.179 571.552 162.856C572.192 161.533 573.131 160.445 574.368 159.592C575.648 158.696 577.227 158.035 579.104 157.608C581.024 157.139 583.243 156.904 585.76 156.904H596.064L595.488 163.368H586.016C585.12 163.368 584.331 163.453 583.648 163.624C582.965 163.752 582.389 163.987 581.92 164.328C581.451 164.627 581.088 164.989 580.832 165.416C580.619 165.843 580.512 166.355 580.512 166.952C580.512 167.592 580.683 168.147 581.024 168.616C581.365 169.085 581.813 169.448 582.368 169.704C582.965 169.96 583.648 170.088 584.416 170.088C585.525 170.088 586.571 169.917 587.552 169.576C588.576 169.192 589.472 168.659 590.24 167.976C591.051 167.293 591.691 166.504 592.16 165.608L593.952 170.216C593.056 171.667 591.968 172.947 590.688 174.056C589.451 175.165 588.085 176.04 586.592 176.68C585.141 177.32 583.605 177.64 581.984 177.64ZM619.45 177V134.44H629.754V177H619.45ZM613.434 152.04V143.016H636.282V152.04H613.434ZM665.756 177.64C662.001 177.64 658.716 176.893 655.9 175.4C653.127 173.907 650.972 171.859 649.436 169.256C647.943 166.611 647.196 163.603 647.196 160.232C647.196 157.587 647.623 155.176 648.476 153C649.329 150.781 650.524 148.883 652.06 147.304C653.639 145.725 655.473 144.509 657.564 143.656C659.697 142.76 662.023 142.312 664.54 142.312C666.929 142.312 669.105 142.739 671.068 143.592C673.031 144.445 674.737 145.64 676.188 147.176C677.639 148.712 678.748 150.525 679.516 152.616C680.284 154.707 680.647 156.989 680.604 159.464L680.54 162.28H653.532L651.996 156.456H672.156L671.068 157.608V156.328C670.983 155.261 670.641 154.344 670.044 153.576C669.489 152.765 668.743 152.125 667.804 151.656C666.908 151.187 665.884 150.952 664.732 150.952C663.025 150.952 661.575 151.293 660.38 151.976C659.228 152.616 658.353 153.555 657.756 154.792C657.159 156.029 656.86 157.565 656.86 159.4C656.86 161.235 657.244 162.856 658.012 164.264C658.823 165.672 659.975 166.76 661.468 167.528C663.004 168.296 664.817 168.68 666.908 168.68C668.316 168.68 669.596 168.467 670.748 168.04C671.9 167.613 673.137 166.888 674.46 165.864L679.26 172.648C677.937 173.757 676.529 174.696 675.036 175.464C673.543 176.189 672.007 176.723 670.428 177.064C668.892 177.448 667.335 177.64 665.756 177.64ZM94.568 257V212.2H113.96C116.776 212.2 119.293 212.84 121.512 214.12C123.731 215.4 125.48 217.149 126.76 219.368C128.04 221.544 128.68 224.04 128.68 226.856C128.68 229.715 128.04 232.296 126.76 234.6C125.48 236.904 123.731 238.717 121.512 240.04C119.293 241.363 116.776 242.024 113.96 242.024H105.512V257H94.568ZM105.384 232.36H112.488C113.427 232.36 114.259 232.147 114.984 231.72C115.752 231.251 116.371 230.611 116.84 229.8C117.309 228.989 117.544 228.072 117.544 227.048C117.544 225.981 117.309 225.064 116.84 224.296C116.371 223.528 115.752 222.931 114.984 222.504C114.259 222.077 113.427 221.864 112.488 221.864H105.384V232.36ZM143.599 257V223.016H153.391L153.839 234.088L151.919 231.912C152.474 230.12 153.327 228.499 154.479 227.048C155.631 225.597 156.996 224.445 158.575 223.592C160.196 222.739 161.882 222.312 163.631 222.312C164.399 222.312 165.103 222.376 165.743 222.504C166.426 222.589 167.023 222.739 167.535 222.952L164.783 234.28C164.314 234.024 163.674 233.811 162.863 233.64C162.095 233.427 161.284 233.32 160.431 233.32C159.492 233.32 158.618 233.491 157.807 233.832C157.039 234.131 156.356 234.579 155.759 235.176C155.204 235.773 154.756 236.477 154.415 237.288C154.116 238.099 153.967 239.016 153.967 240.04V257H143.599ZM194.965 257.64C191.466 257.64 188.33 256.893 185.557 255.4C182.784 253.864 180.608 251.773 179.029 249.128C177.45 246.44 176.661 243.411 176.661 240.04C176.661 236.584 177.45 233.533 179.029 230.888C180.608 228.2 182.784 226.109 185.557 224.616C188.33 223.08 191.466 222.312 194.965 222.312C198.506 222.312 201.642 223.08 204.373 224.616C207.146 226.109 209.322 228.2 210.901 230.888C212.48 233.533 213.269 236.584 213.269 240.04C213.269 243.411 212.48 246.44 210.901 249.128C209.322 251.773 207.146 253.864 204.373 255.4C201.642 256.893 198.506 257.64 194.965 257.64ZM194.965 248.808C196.501 248.808 197.845 248.424 198.997 247.656C200.192 246.888 201.13 245.843 201.813 244.52C202.496 243.197 202.816 241.704 202.773 240.04C202.816 238.291 202.496 236.755 201.813 235.432C201.13 234.067 200.192 233.021 198.997 232.296C197.845 231.528 196.501 231.144 194.965 231.144C193.472 231.144 192.128 231.528 190.933 232.296C189.738 233.064 188.8 234.109 188.117 235.432C187.434 236.755 187.093 238.291 187.093 240.04C187.093 241.704 187.434 243.197 188.117 244.52C188.8 245.843 189.738 246.888 190.933 247.656C192.128 248.424 193.472 248.808 194.965 248.808ZM243.198 271.72C240.468 271.72 237.716 271.315 234.942 270.504C232.212 269.736 229.993 268.712 228.286 267.432L231.87 260.136C233.236 261.075 234.772 261.8 236.478 262.312C238.228 262.867 240.041 263.144 241.918 263.144C244.094 263.144 245.865 262.824 247.23 262.184C248.596 261.544 249.598 260.584 250.238 259.304C250.921 258.024 251.262 256.424 251.262 254.504V248.872L253.182 249.256C252.926 250.579 252.201 251.816 251.006 252.968C249.854 254.12 248.425 255.037 246.718 255.72C245.012 256.403 243.22 256.744 241.342 256.744C238.27 256.744 235.518 256.04 233.086 254.632C230.654 253.181 228.734 251.197 227.326 248.68C225.961 246.12 225.278 243.176 225.278 239.848C225.278 236.435 225.961 233.405 227.326 230.76C228.734 228.115 230.633 226.045 233.022 224.552C235.412 223.059 238.1 222.312 241.086 222.312C242.324 222.312 243.518 222.461 244.67 222.76C245.865 223.016 246.953 223.4 247.934 223.912C248.958 224.424 249.854 225 250.622 225.64C251.433 226.28 252.094 226.984 252.606 227.752C253.118 228.52 253.438 229.288 253.566 230.056L251.454 230.696L251.838 223.016H261.63V254.184C261.63 256.957 261.204 259.432 260.35 261.608C259.54 263.784 258.324 265.619 256.702 267.112C255.124 268.605 253.204 269.736 250.942 270.504C248.681 271.315 246.1 271.72 243.198 271.72ZM243.454 248.744C245.118 248.744 246.548 248.381 247.742 247.656C248.98 246.931 249.918 245.907 250.558 244.584C251.241 243.261 251.582 241.725 251.582 239.976C251.582 238.141 251.241 236.563 250.558 235.24C249.918 233.917 248.98 232.893 247.742 232.168C246.548 231.4 245.118 231.016 243.454 231.016C241.876 231.016 240.489 231.4 239.294 232.168C238.1 232.893 237.161 233.917 236.478 235.24C235.838 236.563 235.518 238.12 235.518 239.912C235.518 241.704 235.838 243.261 236.478 244.584C237.161 245.907 238.1 246.931 239.294 247.656C240.489 248.381 241.876 248.744 243.454 248.744ZM278.202 257V223.016H287.994L288.442 234.088L286.522 231.912C287.076 230.12 287.93 228.499 289.082 227.048C290.234 225.597 291.599 224.445 293.178 223.592C294.799 222.739 296.484 222.312 298.234 222.312C299.002 222.312 299.706 222.376 300.346 222.504C301.028 222.589 301.626 222.739 302.138 222.952L299.386 234.28C298.916 234.024 298.276 233.811 297.466 233.64C296.698 233.427 295.887 233.32 295.034 233.32C294.095 233.32 293.22 233.491 292.41 233.832C291.642 234.131 290.959 234.579 290.362 235.176C289.807 235.773 289.359 236.477 289.018 237.288C288.719 238.099 288.57 239.016 288.57 240.04V257H278.202ZM331.743 257V236.136C331.743 234.387 331.253 233.107 330.271 232.296C329.333 231.443 328.01 231.016 326.303 231.016C324.639 231.016 323.146 231.336 321.823 231.976C320.543 232.573 319.306 233.576 318.111 234.984L311.967 229.032C314.015 226.941 316.362 225.299 319.007 224.104C321.653 222.909 324.533 222.312 327.647 222.312C330.506 222.312 332.981 222.739 335.071 223.592C337.162 224.445 338.783 225.747 339.935 227.496C341.087 229.245 341.663 231.464 341.663 234.152V257H331.743ZM322.911 257.64C320.778 257.64 318.837 257.213 317.087 256.36C315.381 255.507 314.015 254.333 312.991 252.84C312.01 251.304 311.519 249.512 311.519 247.464C311.519 245.715 311.839 244.179 312.479 242.856C313.119 241.533 314.058 240.445 315.295 239.592C316.575 238.696 318.154 238.035 320.031 237.608C321.951 237.139 324.17 236.904 326.687 236.904H336.991L336.415 243.368H326.943C326.047 243.368 325.258 243.453 324.575 243.624C323.893 243.752 323.317 243.987 322.847 244.328C322.378 244.627 322.015 244.989 321.759 245.416C321.546 245.843 321.439 246.355 321.439 246.952C321.439 247.592 321.61 248.147 321.951 248.616C322.293 249.085 322.741 249.448 323.295 249.704C323.893 249.96 324.575 250.088 325.343 250.088C326.453 250.088 327.498 249.917 328.479 249.576C329.503 249.192 330.399 248.659 331.167 247.976C331.978 247.293 332.618 246.504 333.087 245.608L334.879 250.216C333.983 251.667 332.895 252.947 331.615 254.056C330.378 255.165 329.013 256.04 327.519 256.68C326.069 257.32 324.533 257.64 322.911 257.64ZM357.497 257V223.016H367.289L367.609 229.16L366.201 229.288C366.671 228.179 367.311 227.197 368.121 226.344C368.932 225.491 369.828 224.787 370.809 224.232C371.833 223.635 372.9 223.187 374.009 222.888C375.119 222.547 376.228 222.376 377.337 222.376C379.044 222.376 380.559 222.632 381.881 223.144C383.247 223.656 384.42 224.488 385.401 225.64C386.425 226.792 387.236 228.328 387.833 230.248L386.297 229.992L386.745 229.096C387.343 228.072 388.068 227.155 388.921 226.344C389.817 225.491 390.799 224.765 391.865 224.168C392.932 223.571 394.02 223.123 395.129 222.824C396.281 222.525 397.391 222.376 398.457 222.376C401.145 222.376 403.385 222.909 405.177 223.976C406.969 225.043 408.313 226.621 409.209 228.712C410.105 230.76 410.553 233.299 410.553 236.328V257H400.249V237.096C400.249 235.091 399.823 233.597 398.969 232.616C398.159 231.592 396.921 231.08 395.257 231.08C394.361 231.08 393.529 231.229 392.761 231.528C392.036 231.784 391.396 232.189 390.841 232.744C390.329 233.256 389.924 233.853 389.625 234.536C389.327 235.219 389.177 235.987 389.177 236.84V257H378.873V237.032C378.873 235.112 378.425 233.64 377.529 232.616C376.676 231.592 375.46 231.08 373.881 231.08C373.028 231.08 372.217 231.229 371.449 231.528C370.724 231.784 370.084 232.189 369.529 232.744C369.017 233.256 368.612 233.853 368.313 234.536C368.015 235.219 367.865 235.987 367.865 236.84V257H357.497ZM457.098 257V221.352C457.098 219.133 457.567 217.149 458.506 215.4C459.487 213.608 460.852 212.179 462.602 211.112C464.351 210.045 466.378 209.512 468.682 209.512C470.26 209.512 471.732 209.768 473.098 210.28C474.463 210.749 475.679 211.411 476.746 212.264L473.802 219.752C473.247 219.453 472.714 219.219 472.202 219.048C471.69 218.877 471.22 218.792 470.794 218.792C470.026 218.792 469.386 218.92 468.874 219.176C468.362 219.432 467.978 219.816 467.722 220.328C467.508 220.84 467.402 221.48 467.402 222.248V257H462.218C461.108 257 460.106 257 459.21 257C458.356 257 457.652 257 457.098 257ZM452.106 232.552V223.976H474.378V232.552H452.106ZM502.537 257.64C499.039 257.64 495.903 256.893 493.129 255.4C490.356 253.864 488.18 251.773 486.601 249.128C485.023 246.44 484.233 243.411 484.233 240.04C484.233 236.584 485.023 233.533 486.601 230.888C488.18 228.2 490.356 226.109 493.129 224.616C495.903 223.08 499.039 222.312 502.537 222.312C506.079 222.312 509.215 223.08 511.945 224.616C514.719 226.109 516.895 228.2 518.473 230.888C520.052 233.533 520.841 236.584 520.841 240.04C520.841 243.411 520.052 246.44 518.473 249.128C516.895 251.773 514.719 253.864 511.945 255.4C509.215 256.893 506.079 257.64 502.537 257.64ZM502.537 248.808C504.073 248.808 505.417 248.424 506.569 247.656C507.764 246.888 508.703 245.843 509.385 244.52C510.068 243.197 510.388 241.704 510.345 240.04C510.388 238.291 510.068 236.755 509.385 235.432C508.703 234.067 507.764 233.021 506.569 232.296C505.417 231.528 504.073 231.144 502.537 231.144C501.044 231.144 499.7 231.528 498.505 232.296C497.311 233.064 496.372 234.109 495.689 235.432C495.007 236.755 494.665 238.291 494.665 240.04C494.665 241.704 495.007 243.197 495.689 244.52C496.372 245.843 497.311 246.888 498.505 247.656C499.7 248.424 501.044 248.808 502.537 248.808ZM535.219 257V223.016H545.011L545.459 234.088L543.539 231.912C544.094 230.12 544.947 228.499 546.099 227.048C547.251 225.597 548.616 224.445 550.195 223.592C551.816 222.739 553.502 222.312 555.251 222.312C556.019 222.312 556.723 222.376 557.363 222.504C558.046 222.589 558.643 222.739 559.155 222.952L556.403 234.28C555.934 234.024 555.294 233.811 554.483 233.64C553.715 233.427 552.904 233.32 552.051 233.32C551.112 233.32 550.238 233.491 549.427 233.832C548.659 234.131 547.976 234.579 547.379 235.176C546.824 235.773 546.376 236.477 546.035 237.288C545.736 238.099 545.587 239.016 545.587 240.04V257H535.219ZM617.868 257V220.968L623.564 221.16L607.692 240.552L606.22 238.632H635.724V247.656H601.292L596.876 239.208L619.532 211.816H628.428V257H617.868ZM653.845 257.704C652.095 257.704 650.73 257.213 649.749 256.232C648.81 255.208 648.341 253.779 648.341 251.944C648.341 250.237 648.831 248.851 649.813 247.784C650.837 246.675 652.181 246.12 653.845 246.12C655.594 246.12 656.959 246.632 657.941 247.656C658.922 248.637 659.413 250.067 659.413 251.944C659.413 253.651 658.879 255.037 657.813 256.104C656.789 257.171 655.466 257.704 653.845 257.704ZM682.956 257L682.7 256.36L696.78 227.944L698.572 231.976C698.017 233.939 696.993 235.688 695.5 237.224C694.006 238.76 692.321 239.976 690.444 240.872C688.566 241.725 686.774 242.152 685.068 242.152C682.636 242.152 680.396 241.491 678.348 240.168C676.3 238.803 674.657 237.032 673.42 234.856C672.182 232.637 671.564 230.248 671.564 227.688C671.564 224.573 672.289 221.779 673.74 219.304C675.233 216.787 677.238 214.803 679.756 213.352C682.273 211.859 685.132 211.112 688.332 211.112C690.593 211.112 692.726 211.517 694.732 212.328C696.737 213.139 698.486 214.269 699.98 215.72C701.516 217.128 702.71 218.771 703.564 220.648C704.417 222.483 704.844 224.467 704.844 226.6C704.844 228.093 704.716 229.587 704.46 231.08C704.204 232.531 703.798 234.024 703.244 235.56C702.732 237.096 702.092 238.717 701.324 240.424C700.598 242.088 699.745 243.923 698.764 245.928L693.132 257H682.956ZM687.692 233.448C689.014 233.448 690.166 233.171 691.148 232.616C692.172 232.019 692.961 231.229 693.516 230.248C694.113 229.267 694.412 228.157 694.412 226.92C694.412 225.597 694.134 224.424 693.58 223.4C693.025 222.376 692.236 221.565 691.212 220.968C690.23 220.371 689.078 220.072 687.756 220.072C686.476 220.072 685.345 220.371 684.364 220.968C683.425 221.523 682.678 222.312 682.124 223.336C681.612 224.36 681.356 225.555 681.356 226.92C681.356 228.029 681.633 229.096 682.188 230.12C682.785 231.101 683.553 231.912 684.492 232.552C685.473 233.149 686.54 233.448 687.692 233.448ZM727.511 257L727.255 256.36L741.335 227.944L743.127 231.976C742.572 233.939 741.548 235.688 740.055 237.224C738.561 238.76 736.876 239.976 734.999 240.872C733.121 241.725 731.329 242.152 729.623 242.152C727.191 242.152 724.951 241.491 722.903 240.168C720.855 238.803 719.212 237.032 717.975 234.856C716.737 232.637 716.119 230.248 716.119 227.688C716.119 224.573 716.844 221.779 718.295 219.304C719.788 216.787 721.793 214.803 724.311 213.352C726.828 211.859 729.687 211.112 732.887 211.112C735.148 211.112 737.281 211.517 739.287 212.328C741.292 213.139 743.041 214.269 744.535 215.72C746.071 217.128 747.265 218.771 748.119 220.648C748.972 222.483 749.399 224.467 749.399 226.6C749.399 228.093 749.271 229.587 749.015 231.08C748.759 232.531 748.353 234.024 747.799 235.56C747.287 237.096 746.647 238.717 745.879 240.424C745.153 242.088 744.3 243.923 743.319 245.928L737.687 257H727.511ZM732.247 233.448C733.569 233.448 734.721 233.171 735.703 232.616C736.727 232.019 737.516 231.229 738.071 230.248C738.668 229.267 738.967 228.157 738.967 226.92C738.967 225.597 738.689 224.424 738.135 223.4C737.58 222.376 736.791 221.565 735.767 220.968C734.785 220.371 733.633 220.072 732.311 220.072C731.031 220.072 729.9 220.371 728.919 220.968C727.98 221.523 727.233 222.312 726.679 223.336C726.167 224.36 725.911 225.555 725.911 226.92C725.911 228.029 726.188 229.096 726.743 230.12C727.34 231.101 728.108 231.912 729.047 232.552C730.028 233.149 731.095 233.448 732.247 233.448ZM779.298 257.64C775.116 257.64 771.49 256.979 768.418 255.656C765.388 254.333 762.786 252.435 760.61 249.96L765.922 241.576C768.268 244.093 770.551 245.864 772.77 246.888C775.031 247.912 777.378 248.424 779.81 248.424C781.004 248.424 782.05 248.275 782.946 247.976C783.842 247.677 784.546 247.251 785.058 246.696C785.612 246.099 785.89 245.395 785.89 244.584C785.89 243.944 785.719 243.389 785.378 242.92C785.079 242.408 784.652 241.96 784.098 241.576C783.543 241.149 782.882 240.787 782.114 240.488C781.388 240.189 780.599 239.933 779.746 239.72C778.892 239.464 778.018 239.251 777.122 239.08C773.836 238.397 771.106 237.437 768.93 236.2C766.754 234.92 765.132 233.341 764.066 231.464C763.042 229.587 762.53 227.389 762.53 224.872C762.53 222.141 763.298 219.752 764.834 217.704C766.412 215.656 768.482 214.056 771.042 212.904C773.602 211.752 776.375 211.176 779.362 211.176C783.031 211.176 786.295 211.731 789.154 212.84C792.012 213.949 794.551 215.699 796.77 218.088L792.034 225.704C790.327 223.912 788.407 222.589 786.274 221.736C784.183 220.883 781.986 220.456 779.682 220.456C778.444 220.456 777.356 220.605 776.418 220.904C775.479 221.203 774.754 221.651 774.242 222.248C773.772 222.803 773.538 223.485 773.538 224.296C773.538 224.979 773.73 225.597 774.114 226.152C774.54 226.664 775.116 227.112 775.842 227.496C776.567 227.88 777.378 228.221 778.274 228.52C779.212 228.776 780.194 228.989 781.218 229.16C783.564 229.629 785.698 230.248 787.618 231.016C789.538 231.784 791.18 232.744 792.546 233.896C793.911 235.005 794.956 236.328 795.682 237.864C796.45 239.357 796.834 241.085 796.834 243.048C796.834 246.12 796.087 248.744 794.594 250.92C793.1 253.096 791.031 254.76 788.386 255.912C785.74 257.064 782.711 257.64 779.298 257.64ZM775.394 262.824L776.098 233.064L781.346 235.176L782.114 262.824H775.394ZM783.138 235.304L777.762 233.128L777.058 206.568H783.842L783.138 235.304Z" fill="black"/>
</svg>
